#!OML:ASF G:\JayActor3\Patient Classification 1\Patient 1\Session 6\male.ASF
:FULLY-SPECIFIED
:DEGREES
1848
root -1.63804 16.3095 0.545448 171.408 -68.4854 -176.008
lowerback 0.828156 -0.0496114 6.01481
upperback -1.2003 0.0187795 1.09354
thorax -1.70015 -0.0732712 -2.24429
lowerneck 6.12681 -9.28125 -2.91976
upperneck 0.268505 -12.824 -5.90919
head -1.14605 -6.36699 -0.978824
rclavicle -4.05024e-014 -3.97569e-015
rhumerus -2.48022 58.2967 -87.2102
rradius 83.6791
rwrist 9.32493
rhand -51.0879 7.7067
rfingers 7.12502
rthumb -23.6329 -20.8608
lclavicle -4.05024e-014 -3.97569e-015
lhumerus -22.9905 -2.05474 51.567
lradius 78.2068
lwrist 28.0086
lhand -27.7875 10.2407
lfingers 7.12502
lthumb -1.18072 40.2172
rfemur -4.80219 0.043521 23.0447
rtibia 36.2564
rfoot -30.6265 -15.5856
rtoes -2.55597
lfemur -5.16687 11.8914 -15.846
ltibia 26.6075
lfoot -18.6382 7.27085
ltoes 0.268611
1849
root -1.62838 16.3091 0.542564 171.535 -68.539 -176.203
lowerback 0.803358 -0.0597535 5.93205
upperback -1.18193 0.00192786 1.06901
thorax -1.66843 -0.0791407 -2.22304
lowerneck 6.12207 -9.27866 -2.90484
upperneck 0.293294 -12.8187 -5.92623
head -1.13957 -6.36511 -0.987303
rclavicle 2.80286e-014 -7.15625e-015
rhumerus -2.49678 58.2777 -87.2497
rradius 83.6811
rwrist 9.32846
rhand -51.0798 7.71045
rfingers 7.12502
rthumb -23.6252 -20.8581
lclavicle 2.80286e-014 -7.15625e-015
lhumerus -22.9021 -2.05466 51.5821
lradius 78.166
lwrist 27.9845
lhand -27.77 10.2389
lfingers 7.12502
lthumb -1.16375 40.2155
rfemur -4.80674 0.095488 23.0086
rtibia 36.3172
rfoot -30.5964 -15.6813
rtoes -2.30834
lfemur -5.11826 11.9347 -15.8954
ltibia 26.5504
lfoot -18.4821 7.29195
ltoes 0.281432
1850
root -1.61864 16.3087 0.539087 171.693 -68.6063 -176.427
lowerback 0.77171 -0.0745786 5.82711
upperback -1.16076 -0.0219523 1.04327
thorax -1.63046 -0.0880148 -2.19049
lowerneck 6.10944 -9.27573 -2.88909
upperneck 0.324571 -12.812 -5.94329
head -1.12974 -6.36297 -0.996552
rclavicle -2.3059e-014 -2.78299e-015
rhumerus -2.50018 58.2577 -87.278
rradius 83.6859
rwrist 9.33439
rhand -51.0756 7.71905
rfingers 7.12502
rthumb -23.6211 -20.85
lclavicle -2.3059e-014 -2.78299e-015
lhumerus -22.8137 -2.04377 51.5984
lradius 78.1276
lwrist 27.9543
lhand -27.754 10.2364
lfingers 7.12502
lthumb -1.14829 40.2131
rfemur -4.80976 0.137267 22.9588
rtibia 36.376
rfoot -30.5785 -15.7733
rtoes -2.11274
lfemur -5.0782 11.9772 -15.9565
ltibia 26.4987
lfoot -18.3079 7.2889
ltoes 0.351001
1851
root -1.60859 16.3081 0.535218 171.801 -68.6807 -176.594
lowerback 0.739438 -0.0938269 5.7337
upperback -1.13817 -0.0516467 1.02483
thorax -1.59111 -0.0999601 -2.15677
lowerneck 6.09069 -9.27163 -2.87382
upperneck 0.361702 -12.8031 -5.9587
head -1.1168 -6.36004 -1.00579
rclavicle -8.00108e-015 -4.37326e-015
rhumerus -2.49487 58.2392 -87.299
rradius 83.694
rwrist 9.34464
rhand -51.0823 7.73574
rfingers 7.12502
rthumb -23.6276 -20.8325
lclavicle -8.00108e-015 -4.37326e-015
lhumerus -22.7268 -2.02196 51.6164
lradius 78.0912
lwrist 27.913
lhand -27.7366 10.2372
lfingers 7.12502
lthumb -1.13152 40.2139
rfemur -4.80869 0.171266 22.9313
rtibia 36.4265
rfoot -30.5727 -15.8567
rtoes -1.93887
lfemur -5.05272 12.0113 -15.9945
ltibia 26.4616
lfoot -18.1166 7.2662
ltoes 0.493116
1852
root -1.59858 16.3074 0.531149 171.867 -68.7603 -176.716
lowerback 0.704432 -0.117468 5.65093
upperback -1.113 -0.0873204 1.01264
thorax -1.548 -0.114954 -2.12246
lowerneck 6.07203 -9.26582 -2.86163
upperneck 0.398109 -12.792 -5.97005
head -1.10357 -6.35606 -1.01339
rclavicle -5.96354e-015 -7.95139e-016
rhumerus -2.48073 58.2266 -87.3125
rradius 83.7043
rwrist 9.35587
rhand -51.0972 7.75479
rfingers 7.12502
rthumb -23.6419 -20.8116
lclavicle -5.96354e-015 -7.95139e-016
lhumerus -22.6418 -1.9881 51.6365
lradius 78.0556
lwrist 27.8606
lhand -27.7223 10.2363
lfingers 7.12502
lthumb -1.11768 40.2131
rfemur -4.79895 0.191462 22.9184
rtibia 36.4651
rfoot -30.5712 -15.9278
rtoes -1.77811
lfemur -5.0412 12.0342 -16.0155
ltibia 26.445
lfoot -17.9164 7.23286
ltoes 0.701918
1853
root -1.5886 16.3065 0.527134 171.88 -68.8393 -176.783
lowerback 0.67414 -0.143472 5.58785
upperback -1.0877 -0.125565 1.00605
thorax -1.50761 -0.13162 -2.09337
lowerneck 6.059 -9.25889 -2.85272
upperneck 0.430432 -12.7799 -5.97429
head -1.09181 -6.35136 -1.01798
rclavicle 4.72114e-015 -3.65764e-014
rhumerus -2.46843 58.2175 -87.3275
rradius 83.7178
rwrist 9.36436
rhand -51.1094 7.76131
rfingers 7.12502
rthumb -23.6535 -20.8035
lclavicle 4.72114e-015 -3.65764e-014
lhumerus -22.5579 -1.94833 51.6566
lradius 78.0195
lwrist 27.799
lhand -27.7155 10.2369
lfingers 7.12502
lthumb -1.11117 40.2138
rfemur -4.78001 0.201157 22.9251
rtibia 36.4901
rfoot -30.5719 -15.9833
rtoes -1.60192
lfemur -5.0431 12.0391 -16.0164
ltibia 26.453
lfoot -17.7157 7.20598
ltoes 0.95815
1854
root -1.57874 16.3056 0.523168 171.847 -68.9145 -176.801
lowerback 0.649733 -0.169603 5.54349
upperback -1.06232 -0.163353 1.0034
thorax -1.47044 -0.148424 -2.0707
lowerneck 6.04719 -9.25239 -2.84407
upperneck 0.460713 -12.7682 -5.97364
head -1.08054 -6.34685 -1.02093
rclavicle 4.87022e-015 3.18055e-014
rhumerus -2.46239 58.2094 -87.3463
rradius 83.7355
rwrist 9.36884
rhand -51.1251 7.76463
rfingers 7.12502
rthumb -23.6686 -20.7983
lclavicle 4.87022e-015 3.18055e-014
lhumerus -22.4704 -1.90496 51.6774
lradius 77.9795
lwrist 27.7306
lhand -27.7175 10.2332
lfingers 7.12502
lthumb -1.11309 40.21
rfemur -4.75517 0.19856 22.9485
rtibia 36.5052
rfoot -30.5614 -16.0328
rtoes -1.41175
lfemur -5.05381 12.0317 -15.9989
ltibia 26.4798
lfoot -17.5158 7.18939
ltoes 1.24478
1855
root -1.56866 16.3048 0.519272 171.778 -68.9821 -176.779
lowerback 0.634784 -0.194077 5.51563
upperback -1.04141 -0.197953 1.00373
thorax -1.44299 -0.16421 -2.05423
lowerneck 6.04226 -9.24757 -2.8396
upperneck 0.487602 -12.7593 -5.96615
head -1.07074 -6.34355 -1.02067
rclavicle -3.10601e-014 2.62396e-014
rhumerus -2.4759 58.1994 -87.3792
rradius 83.7581
rwrist 9.36855
rhand -51.1283 7.75717
rfingers 7.12502
rthumb -23.6717 -20.8053
lclavicle -3.10601e-014 2.62396e-014
lhumerus -22.3849 -1.86431 51.6978
lradius 77.939
lwrist 27.6593
lhand -27.735 10.2412
lfingers 7.12502
lthumb -1.13002 40.2179
rfemur -4.73456 0.190815 22.988
rtibia 36.5166
rfoot -30.5386 -16.0786
rtoes -1.19058
lfemur -5.07393 12.0112 -15.9671
ltibia 26.5174
lfoot -17.3191 7.19326
ltoes 1.53006
1856
root -1.55871 16.3039 0.515221 171.693 -69.0417 -176.74
lowerback 0.629417 -0.214829 5.49581
upperback -1.02296 -0.226742 1.00315
thorax -1.42303 -0.177439 -2.04329
lowerneck 6.03895 -9.24465 -2.83401
upperneck 0.515079 -12.7527 -5.9544
head -1.06082 -6.34137 -1.01917
rclavicle -6.55989e-015 2.66371e-014
rhumerus -2.50877 58.1833 -87.4269
rradius 83.7841
rwrist 9.36437
rhand -51.1325 7.75454
rfingers 7.12502
rthumb -23.6757 -20.8074
lclavicle -6.55989e-015 2.66371e-014
lhumerus -22.2997 -1.83009 51.7172
lradius 77.8997
lwrist 27.5873
lhand -27.7568 10.2666
lfingers 7.12502
lthumb -1.15107 40.2432
rfemur -4.71659 0.178725 23.034
rtibia 36.5314
rfoot -30.5029 -16.123
rtoes -0.940649
lfemur -5.08992 11.9763 -15.9296
ltibia 26.554
lfoot -17.1308 7.21861
ltoes 1.80444
1857
root -1.54857 16.3031 0.510898 171.637 -69.1014 -176.732
lowerback 0.634996 -0.234021 5.46308
upperback -1.01038 -0.252565 0.998307
thorax -1.41499 -0.18943 -2.02951
lowerneck 6.04159 -9.24258 -2.83055
upperneck 0.541253 -12.7475 -5.93695
head -1.05176 -6.33979 -1.01525
rclavicle -2.27111e-014 -3.61788e-014
rhumerus -2.56754 58.1632 -87.4937
rradius 83.8128
rwrist 9.36229
rhand -51.1376 7.7474
rfingers 7.12502
rthumb -23.6806 -20.814
lclavicle -2.27111e-014 -3.61788e-014
lhumerus -22.2198 -1.80472 51.7357
lradius 77.8622
lwrist 27.5199
lhand -27.7917 10.3013
lfingers 7.12502
lthumb -1.1847 40.2778
rfemur -4.70695 0.157341 23.0668
rtibia 36.5545
rfoot -30.4516 -16.1678
rtoes -0.673521
lfemur -5.10265 11.9304 -15.9058
ltibia 26.5833
lfoot -16.9526 7.25635
ltoes 2.04515
